<svg id="hfg_logo_atlas" xmlns="http://www.w3.org/2000/svg" viewBox="0 0 275.26 88.2">
  <path d="M4.56,16.8H1.28V1.49H4.56V7.88h6.16V1.49H14V16.8H10.72V10.44H4.56Z" transform="translate(-0.62 -0.91)"/>
  <path d="M132.75,16.8h-3.1V8.27h-1.54V6.07h1.54V4.67c0-2.84,1.55-3.76,3.87-3.76a9.59,9.59,0,0,1,1.56.12V3.25a4.68,4.68,0,0,0-.88-.06c-.95,0-1.45.38-1.45,1.6V6.07h2.11v2.2h-2.11Z" transform="translate(-0.62 -0.91)"/>
  <path d="M167.09,9.22c0,4,1.42,5.52,3.74,5.52,2.11,0,3.33-1.28,3.49-3.46l0-.28h-3.63V8.63h6.69V16.8h-2.6V14.72h-.08a4.69,4.69,0,0,1-4.45,2.4c-4.36,0-6.68-3-6.68-7.74,0-5,2.9-8.11,7.24-8.11,3.69,0,5.91,1.74,6.27,4.86h-3.34a2.8,2.8,0,0,0-2.93-2.5C168.45,3.63,167.09,5.57,167.09,9.22Z" transform="translate(-0.62 -0.91)"/>
  <path d="M4.56,64.8H1.28V49.49H4.56v6.39h6.16V49.49H14V64.8H10.72V58.44H4.56Z" transform="translate(-0.62 -0.91)"/>
  <path d="M16.74,59.44c0-3.52,2.08-5.63,5.44-5.63s5.42,2.08,5.42,5.63-2.22,5.64-5.44,5.64C18.78,65.08,16.74,62.94,16.74,59.44Zm3.28,0c0,2.08.6,3.5,2.16,3.5s2.12-1.52,2.12-3.5S23.74,56,22.18,56,20,57.46,20,59.44Z" transform="translate(-0.62 -0.91)"/>
  <path d="M36.88,57.92c-.1-1.14-.64-2-1.84-2-1.66,0-2.16,1.69-2.16,3.47s.34,3.48,2.14,3.48A1.88,1.88,0,0,0,37,60.82H40c-.08,2.82-2.2,4.24-5,4.24-3.46,0-5.4-2.12-5.4-5.62S31.7,53.81,35,53.81c2.86,0,4.88,1.41,5,4.11Z" transform="translate(-0.62 -0.91)"/>
  <path d="M49.56,58.52a3.15,3.15,0,0,0-.32-1.76,1.61,1.61,0,0,0-1.38-.63c-1.42,0-2.16.91-2.16,2.47v6.2H42.51V49H45.7V55.8h0a3.6,3.6,0,0,1,3.36-1.95c2.58,0,3.64,1.35,3.64,4v7H49.56Z" transform="translate(-0.62 -0.91)"/>
  <path d="M61.26,57.06a1.36,1.36,0,0,0-1.54-1.22c-1,0-1.5.48-1.5,1.12s.32,1,1.24,1.08l1.82.24c2,.26,3.1,1.22,3.1,3.16,0,2.38-1.94,3.66-4.66,3.66-3.2,0-4.56-1.5-4.71-3.42h2.93c0,.76.54,1.38,1.8,1.38,1,0,1.7-.4,1.7-1.18s-.28-1-1.28-1.1l-1.72-.24c-2-.28-3.15-1.26-3.15-3.2s1.41-3.53,4.45-3.53c2.8,0,4.18,1.37,4.32,3.25Z" transform="translate(-0.62 -0.91)"/>
  <path d="M73.52,57.92c-.1-1.14-.64-2-1.84-2-1.66,0-2.16,1.69-2.16,3.47s.34,3.48,2.14,3.48a1.88,1.88,0,0,0,1.94-2.06h3.08c-.08,2.82-2.2,4.24-5,4.24-3.46,0-5.41-2.12-5.41-5.62s2.08-5.63,5.43-5.63c2.86,0,4.88,1.41,5,4.11Z" transform="translate(-0.62 -0.91)"/>
  <path d="M86.2,58.52a3.15,3.15,0,0,0-.32-1.76,1.61,1.61,0,0,0-1.38-.63c-1.42,0-2.17.91-2.17,2.47v6.2H79.15V49h3.18V55.8h0a3.63,3.63,0,0,1,3.37-1.95c2.58,0,3.64,1.35,3.64,4v7H86.2Z" transform="translate(-0.62 -0.91)"/>
  <path d="M95.45,60.34a3.23,3.23,0,0,0,.33,1.76,1.49,1.49,0,0,0,1.35.62c1.41,0,2.11-1,2.11-2.78V54.07h3.18V64.8H99.36V63.06h0A3.54,3.54,0,0,1,96,65c-2.58,0-3.68-1.26-3.68-3.78V54.07h3.18Z" transform="translate(-0.62 -0.91)"/>
  <path d="M105.51,49h3.19V64.8h-3.19Z" transform="translate(-0.62 -0.91)"/>
  <path d="M116.42,65.08c-3.47,0-5.31-2.22-5.31-5.66s2-5.61,5.34-5.61c3.63,0,5.15,2.39,5.15,5.53v.84h-7.28c.13,1.92.85,2.76,2.2,2.76a1.67,1.67,0,0,0,1.86-1.26h3.12C121.18,63.76,119.32,65.08,116.42,65.08Zm1.94-6.86c-.1-1.52-.7-2.42-1.91-2.42s-2,.92-2.13,2.56h4Z" transform="translate(-0.62 -0.91)"/>
  <path d="M132.75,64.8h-3.1V56.28h-1.54V54.07h1.54v-1.4c0-2.84,1.55-3.76,3.87-3.76a9.59,9.59,0,0,1,1.56.12v2.22a4.68,4.68,0,0,0-.88-.06c-.95,0-1.45.38-1.45,1.6v1.28h2.11v2.21h-2.11Z" transform="translate(-0.62 -0.91)"/>
  <path d="M140,60.34a3.34,3.34,0,0,0,.32,1.76,1.52,1.52,0,0,0,1.36.62c1.41,0,2.11-1,2.11-2.78V54.07H147V64.8H143.9V63.06h0A3.56,3.56,0,0,1,140.49,65c-2.58,0-3.68-1.26-3.68-3.78V54.07H140Zm-1.52-11h2.72v2.74h-2.72Zm4.16,0h2.75v2.74h-2.75Z" transform="translate(-0.62 -0.91)"/>
  <path d="M150.05,54.07h3v2.27h0a3.76,3.76,0,0,1,3.55-2.45h.18v2.89h-.57c-1.94,0-3,.66-3,2.72v5.3h-3.16Z" transform="translate(-0.62 -0.91)"/>
  <path d="M167.09,57.22c0,4,1.42,5.52,3.74,5.52,2.11,0,3.33-1.28,3.49-3.46l0-.28h-3.63V56.63h6.69V64.8h-2.6V62.72h-.08a4.69,4.69,0,0,1-4.45,2.4c-4.36,0-6.68-3-6.68-7.74,0-5,2.9-8.11,7.24-8.11,3.69,0,5.91,1.74,6.27,4.86h-3.34a2.8,2.8,0,0,0-2.93-2.5C168.45,51.63,167.09,53.57,167.09,57.22Z" transform="translate(-0.62 -0.91)"/>
  <path d="M185.25,65.08c-3.46,0-5.3-2.22-5.3-5.66s2-5.61,5.34-5.61c3.62,0,5.15,2.39,5.15,5.53v.84h-7.29c.14,1.92.86,2.76,2.2,2.76a1.67,1.67,0,0,0,1.86-1.26h3.13C190,63.76,188.16,65.08,185.25,65.08Zm1.94-6.86c-.1-1.52-.69-2.42-1.9-2.42s-2,.92-2.14,2.56h4Z" transform="translate(-0.62 -0.91)"/>
  <path d="M198.49,57.06A1.36,1.36,0,0,0,197,55.84c-1,0-1.5.48-1.5,1.12s.32,1,1.24,1.08l1.82.24c2,.26,3.11,1.22,3.11,3.16,0,2.38-2,3.66-4.67,3.66-3.2,0-4.56-1.5-4.7-3.42h2.92c0,.76.54,1.38,1.8,1.38,1,0,1.7-.4,1.7-1.18s-.28-1-1.28-1.1l-1.72-.24c-2-.28-3.14-1.26-3.14-3.2s1.4-3.53,4.44-3.53c2.8,0,4.19,1.37,4.32,3.25Z" transform="translate(-0.62 -0.91)"/>
  <path d="M207.63,51.05v3H210v2.21h-2.36V61c0,1.08.4,1.56,1.48,1.56a7.3,7.3,0,0,0,.9-.08v2.32c-.42,0-1.22.12-2.12.12-2.1,0-3.4-.9-3.4-3.32V56.28H203V54.09h.36c1.36,0,1.6-.28,1.6-2.22v-.82Z" transform="translate(-0.62 -0.91)"/>
  <path d="M212.37,57.26c.12-2.14,1.82-3.42,4.62-3.42,3.46,0,4.67,1.42,4.67,4.28v3.7c0,.58.17.8.86.8v2.2h-1.07c-1.54,0-2.28-.3-2.62-1.48h0a3.64,3.64,0,0,1-3.24,1.58c-2.24,0-3.64-1.18-3.64-3.18a2.83,2.83,0,0,1,1.62-2.68c1.14-.6,2.76-.7,5-.8v-.58c0-1.18-.5-1.8-1.58-1.8a1.4,1.4,0,0,0-1.58,1.38Zm6.22,3v-.34a6.47,6.47,0,0,0-3,.58,1.24,1.24,0,0,0-.52,1.08,1.29,1.29,0,0,0,1.42,1.32C217.57,62.92,218.59,62.06,218.59,60.28Z" transform="translate(-0.62 -0.91)"/>
  <path d="M224.79,49H228V64.8h-3.18Z" transform="translate(-0.62 -0.91)"/>
  <path d="M234.63,51.05v3H237v2.21h-2.36V61c0,1.08.4,1.56,1.48,1.56a7.3,7.3,0,0,0,.9-.08v2.32c-.42,0-1.22.12-2.12.12-2.1,0-3.4-.9-3.4-3.32V56.28H230V54.09h.36c1.36,0,1.6-.28,1.6-2.22v-.82Z" transform="translate(-0.62 -0.91)"/>
  <path d="M242.39,60.34a3.34,3.34,0,0,0,.32,1.76,1.52,1.52,0,0,0,1.36.62c1.4,0,2.1-1,2.1-2.78V54.07h3.18V64.8h-3.06V63.06h0A3.53,3.53,0,0,1,242.89,65c-2.58,0-3.68-1.26-3.68-3.78V54.07h3.18Z" transform="translate(-0.62 -0.91)"/>
  <path d="M259.49,58.54a3.23,3.23,0,0,0-.32-1.78,1.61,1.61,0,0,0-1.38-.63c-1.42,0-2.16.91-2.16,2.47v6.2h-3.18V54.07h3.06v1.77h0a3.69,3.69,0,0,1,3.48-2c2.58,0,3.64,1.35,3.64,4v7h-3.18Z" transform="translate(-0.62 -0.91)"/>
  <path d="M265.43,65.44h3.06c.2.8.66,1.26,2,1.26,1.56,0,2.3-.7,2.3-2.6V62.58h-.06a3.22,3.22,0,0,1-3.12,1.88c-2.8,0-4.56-1.62-4.56-5.22s2-5.39,4.64-5.39a3.26,3.26,0,0,1,3.06,1.69h0V54.07h3v9.87c0,3.24-1.74,4.84-5.38,4.84C267.15,68.78,265.59,67.46,265.43,65.44Zm7.4-6.68c0-1.74-.9-2.75-2.24-2.75s-2.26,1.07-2.26,3.23.72,3.2,2.26,3.2a2.3,2.3,0,0,0,2.24-2.52Z" transform="translate(-0.62 -0.91)"/>
  <path d="M9.08,77.65a2.1,2.1,0,0,0-2.28-2c-1.42,0-2.3.76-2.3,1.84s.56,1.64,2,1.9l2.32.43c2.72.5,4,2,4,4.22,0,3.28-2.24,5.08-6.14,5.08s-6-1.84-6.12-4.7H4a2.54,2.54,0,0,0,2.78,2.3c1.82,0,2.66-.92,2.66-2.08S8.9,83,7.3,82.72L5,82.28C2.66,81.82,1.08,80.4,1.08,78c0-2.7,2.08-4.68,5.74-4.68,3.88,0,5.52,2,5.62,4.38Z" transform="translate(-0.62 -0.91)"/>
  <path d="M22.34,81.92c-.1-1.14-.64-2-1.84-2-1.66,0-2.16,1.69-2.16,3.47s.34,3.48,2.14,3.48a1.88,1.88,0,0,0,1.94-2.06H25.5c-.08,2.82-2.2,4.24-5,4.24-3.46,0-5.4-2.12-5.4-5.62s2.08-5.63,5.42-5.63c2.86,0,4.88,1.41,5,4.11Z" transform="translate(-0.62 -0.91)"/>
  <path d="M35,82.52a3.15,3.15,0,0,0-.32-1.76,1.61,1.61,0,0,0-1.38-.63c-1.42,0-2.16.91-2.16,2.47v6.2H28V73h3.18V79.8h0a3.6,3.6,0,0,1,3.36-2c2.58,0,3.64,1.35,3.64,4v7H35Z" transform="translate(-0.62 -0.91)"/>
  <path d="M40,78.07H43l1.42,5.41a18.06,18.06,0,0,1,.4,2.26h.06s.22-1.18.54-2.24l1.6-5.43h2.58l1.6,5.43a22.62,22.62,0,0,1,.52,2.24h.08s.18-1.18.46-2.24l1.4-5.43h2.78L53.38,88.8H50.32L49,84.54a33.22,33.22,0,0,1-.74-3.24h0s-.4,2-.8,3.24L46.12,88.8h-3Z" transform="translate(-0.62 -0.91)"/>
  <path d="M58.05,81.26c.12-2.14,1.83-3.42,4.63-3.42,3.46,0,4.66,1.42,4.66,4.28v3.7c0,.58.18.8.86.8v2.2H67.14c-1.54,0-2.28-.3-2.62-1.48h0a3.64,3.64,0,0,1-3.24,1.58c-2.24,0-3.65-1.18-3.65-3.18a2.84,2.84,0,0,1,1.63-2.68c1.14-.6,2.76-.7,5-.8v-.58c0-1.18-.5-1.8-1.58-1.8a1.4,1.4,0,0,0-1.58,1.38Zm1.35-7.93h2.72v2.74H59.4Zm4.88,11v-.34a6.47,6.47,0,0,0-3,.58,1.24,1.24,0,0,0-.52,1.08,1.29,1.29,0,0,0,1.42,1.32C63.26,86.92,64.28,86.06,64.28,84.28Zm-.72-11H66.3v2.74H63.56Z" transform="translate(-0.62 -0.91)"/>
  <path d="M70.47,73h3.19v6.65h0A3.61,3.61,0,0,1,77,77.84c2.48,0,4.3,1.59,4.3,5.56,0,3.66-1.78,5.66-4.54,5.66a3.35,3.35,0,0,1-3.16-1.74h0V88.8h-3ZM78,83.44c0-2.26-.7-3.43-2.22-3.43-1.28,0-2.18,1.07-2.18,2.85V84c0,1.68.72,2.92,2.2,2.92S78,85.74,78,83.44Z" transform="translate(-0.62 -0.91)"/>
  <path d="M83.67,73.33H86.9v2.88H83.67Zm0,4.74h3.18V88.8H83.7Z" transform="translate(-0.62 -0.91)"/>
  <path d="M95.52,81.06A1.36,1.36,0,0,0,94,79.84c-1,0-1.5.48-1.5,1.12s.32,1,1.24,1.08l1.82.24c2,.26,3.1,1.22,3.1,3.16,0,2.38-1.94,3.66-4.66,3.66-3.2,0-4.57-1.5-4.7-3.42H92.2c0,.76.54,1.38,1.8,1.38,1,0,1.7-.4,1.7-1.18s-.28-1-1.28-1.1l-1.72-.24c-2-.28-3.14-1.26-3.14-3.2S91,77.81,94,77.81c2.8,0,4.18,1.37,4.32,3.25Z" transform="translate(-0.62 -0.91)"/>
  <path d="M107.78,81.92c-.1-1.14-.64-2-1.84-2-1.66,0-2.16,1.69-2.16,3.47s.34,3.48,2.14,3.48a1.88,1.88,0,0,0,1.94-2.06h3.08c-.08,2.82-2.2,4.24-5,4.24-3.47,0-5.41-2.12-5.41-5.62s2.09-5.63,5.43-5.63c2.86,0,4.88,1.41,5,4.11Z" transform="translate(-0.62 -0.91)"/>
  <path d="M120.46,82.52a3.15,3.15,0,0,0-.32-1.76,1.61,1.61,0,0,0-1.38-.63c-1.42,0-2.16.91-2.16,2.47v6.2h-3.19V73h3.19V79.8h0a3.6,3.6,0,0,1,3.36-2c2.58,0,3.64,1.35,3.64,4v7h-3.18Z" transform="translate(-0.62 -0.91)"/>
  <path d="M134.74,81.22c0,4,1.42,5.52,3.74,5.52,2.1,0,3.32-1.28,3.48-3.46l0-.28h-3.62V80.63H145V88.8h-2.6V86.72h-.08a4.69,4.69,0,0,1-4.44,2.4c-4.37,0-6.69-3-6.69-7.74,0-5,2.9-8.11,7.25-8.11,3.68,0,5.9,1.74,6.26,4.86H141.4a2.79,2.79,0,0,0-2.92-2.5C136.1,75.63,134.74,77.57,134.74,81.22Z" transform="translate(-0.62 -0.91)"/>
  <path d="M148.19,78.07h3.06v1.77h0a3.72,3.72,0,0,1,3.41-2c2,0,2.94.88,3.34,2.23h0a3.76,3.76,0,0,1,3.54-2.23c2.52,0,3.6,1.35,3.6,4v7H162V82.52a3.15,3.15,0,0,0-.32-1.76,1.49,1.49,0,0,0-1.34-.63c-1.34,0-2.08.91-2.08,2.47v6.2h-3.18V82.52a3.15,3.15,0,0,0-.32-1.76,1.53,1.53,0,0,0-1.34-.63c-1.34,0-2.09.91-2.09,2.45V88.8h-3.18Z" transform="translate(-0.62 -0.91)"/>
  <path d="M171.29,84.34a3.23,3.23,0,0,0,.33,1.76,1.49,1.49,0,0,0,1.35.62c1.4,0,2.11-1,2.11-2.78V78.07h3.18V88.8H175.2V87.06h0A3.54,3.54,0,0,1,171.79,89c-2.58,0-3.68-1.26-3.68-3.78V78.07h3.18Zm-1.52-11h2.73v2.74h-2.73Zm4.17,0h2.74v2.74h-2.74Z" transform="translate(-0.62 -0.91)"/>
  <path d="M188.4,82.54a3.23,3.23,0,0,0-.32-1.78,1.61,1.61,0,0,0-1.38-.63c-1.42,0-2.16.91-2.16,2.47v6.2h-3.19V78.07h3.06v1.77h0a3.7,3.7,0,0,1,3.49-2c2.58,0,3.64,1.35,3.64,4v7H188.4Z" transform="translate(-0.62 -0.91)"/>
  <path d="M204.84,88.8h-3V87.22h0a3.55,3.55,0,0,1-3.21,1.86c-2.84,0-4.56-1.78-4.56-5.5s2-5.73,4.68-5.73a3.16,3.16,0,0,1,3,1.65h0V73h3.18ZM201.7,83c0-1.88-.84-2.95-2.16-2.95s-2.31,1.12-2.31,3.47c0,2.18.66,3.46,2.22,3.46s2.25-1.16,2.25-2.7Z" transform="translate(-0.62 -0.91)"/>
</svg>
